{"accessors":[{"bufferView":0,"componentType":5123,"count":47616,"max":[9120],"min":[0],"type":"SCALAR"},{"bufferView":1,"componentType":5126,"count":9121,"max":[0.9494273066520691,1.0491976737976074,1.0268055200576782],"min":[-0.9897961616516113,-0.9628754258155823,-1.0044149160385132],"type":"VEC3"},{"bufferView":2,"componentType":5126,"count":9121,"max":[0.9989013075828552,0.999969482421875,0.99951171875],"min":[-0.99981689453125,-0.999969482421875,-0.999725341796875],"type":"VEC3"},{"bufferView":3,"componentType":5126,"count":9121,"max":[0.9999996423721313,0.5781617760658264,0.9999836683273315,1.0],"min":[-1.0,-0.4297093152999878,-1.0,1.0],"type":"VEC4"},{"bufferView":4,"componentType":5126,"count":9121,"max":[1.000000238418579,1.0],"min":[0.0,-1.1920928955078125e-07],"type":"VEC2"},{"bufferView":5,"componentType":5123,"count":606,"max":[605],"min":[0],"type":"SCALAR"},{"bufferView":6,"componentType":5126,"count":606,"max":[2.5474884510040283,2.7025856971740723,2.467311382293701],"min":[-2.357675552368164,-0.18559132516384125,-2.2389867305755615],"type":"VEC3"},{"bufferView":7,"componentType":5126,"count":606,"max":[0.8863491415977478,0.9944907426834106,0.48678961396217346],"min":[-0.6348549127578735,0.4593299329280853,-0.7634133100509644],"type":"VEC3"},{"bufferView":8,"componentType":5126,"count":606,"max":[0.969573974609375,0.31104546785354614,0.9817478656768799,-1.0],"min":[-0.9983793497085571,-0.8345445990562439,-0.9963392615318298,-1.0],"type":"VEC4"},{"bufferView":9,"componentType":5126,"count":606,"max":[4.944177150726318,4.944177150726318],"min":[-3.9441771507263184,-3.9441771507263184],"type":"VEC2"},{"bufferView":10,"componentType":5126,"count":1,"max":[0.0],"min":[0.0],"type":"SCALAR"},{"bufferView":11,"componentType":5126,"count":1,"max":[0.0,-0.8206542134284973,-0.0],"min":[0.0,-0.8206542134284973,-0.0],"type":"VEC3"},{"bufferView":12,"componentType":5126,"count":1,"max":[0.0],"min":[0.0],"type":"SCALAR"},{"bufferView":13,"componentType":5126,"count":1,"max":[0.0,0.0,-0.0,1.0],"min":[0.0,0.0,-0.0,1.0],"type":"VEC4"},{"bufferView":14,"componentType":5126,"count":1,"max":[0.0],"min":[0.0],"type":"SCALAR"},{"bufferView":15,"componentType":5126,"count":1,"max":[0.5723328590393066,0.5723328590393066,0.5723328590393066],"min":[0.5723328590393066,0.5723328590393066,0.5723328590393066],"type":"VEC3"},{"bufferView":16,"componentType":5126,"count":1,"max":[0.0],"min":[0.0],"type":"SCALAR"},{"bufferView":17,"componentType":5126,"count":1,"max":[-4.452493190765381,4.355851650238037,1.7127361297607422],"min":[-4.452493190765381,4.355851650238037,1.7127361297607422],"type":"VEC3"},{"bufferView":18,"componentType":5126,"count":1,"max":[0.0],"min":[0.0],"type":"SCALAR"},{"bufferView":19,"componentType":5126,"count":1,"max":[-0.22889351844787598,-0.5612869262695312,-0.3003278374671936,0.7364563345909119],"min":[-0.22889351844787598,-0.5612869262695312,-0.3003278374671936,0.7364563345909119],"type":"VEC4"},{"bufferView":20,"componentType":5126,"count":1,"max":[0.0],"min":[0.0],"type":"SCALAR"},{"bufferView":21,"componentType":5126,"count":1,"max":[1.0,1.0,1.0],"min":[1.0,1.0,1.0],"type":"VEC3"},{"bufferView":22,"componentType":5126,"count":2,"max":[4.458333333333333],"min":[0.0],"type":"SCALAR"},{"bufferView":23,"componentType":5126,"count":2,"max":[1.0],"min":[0.0],"type":"SCALAR"},{"bufferView":24,"componentType":5126,"count":2,"max":[4.416666666666666],"min":[0.0],"type":"SCALAR"},{"bufferView":25,"componentType":5126,"count":2,"max":[2.0],"min":[0.0],"type":"SCALAR"},{"bufferView":26,"componentType":5126,"count":2,"max":[4.416666666666666],"min":[0.0],"type":"SCALAR"},{"bufferView":27,"componentType":5126,"count":2,"max":[2.5],"min":[0.5],"type":"SCALAR"},{"bufferView":28,"componentType":5126,"count":2,"max":[4.416666666666666],"min":[0.0],"type":"SCALAR"},{"bufferView":29,"componentType":5126,"count":2,"max":[1.5],"min":[0.5],"type":"SCALAR"},{"bufferView":30,"componentType":5126,"count":2,"max":[8.5],"min":[0.0],"type":"SCALAR"},{"bufferView":31,"componentType":5126,"count":2,"max":[1.0],"min":[0.0],"type":"SCALAR"},{"bufferView":32,"componentType":5126,"count":2,"max":[8.458333333333334],"min":[0.0],"type":"SCALAR"},{"bufferView":33,"componentType":5126,"count":2,"max":[2.0],"min":[0.0],"type":"SCALAR"},{"bufferView":34,"componentType":5126,"count":2,"max":[8.458333333333334],"min":[0.0],"type":"SCALAR"},{"bufferView":35,"componentType":5126,"count":2,"max":[2.5],"min":[0.5],"type":"SCALAR"},{"bufferView":36,"componentType":5126,"count":2,"max":[8.458333333333334],"min":[0.0],"type":"SCALAR"},{"bufferView":37,"componentType":5126,"count":2,"max":[1.5],"min":[0.5],"type":"SCALAR"}],"animations":[{"channels":[{"sampler":0,"target":{"node":1,"path":"translation"}},{"sampler":1,"target":{"node":1,"path":"rotation"}},{"sampler":2,"target":{"node":1,"path":"scale"}},{"sampler":3,"target":{"extras":{"material":1},"node":1,"path":"material.nodeValue[\"Value\"]"}},{"sampler":4,"target":{"extras":{"material":1},"node":1,"path":"material.nodeValue[\"Value.001\"]"}},{"sampler":5,"target":{"extras":{"material":1},"node":1,"path":"material.nodeValue[\"Value.002\"]"}},{"sampler":6,"target":{"extras":{"material":1},"node":1,"path":"material.nodeValue[\"Value.003\"]"}}],"extensions":{"S8S_v3d_animation_data":{"auto":true,"loop":"REPEAT","offset":0.0,"repeatCount":1.0,"repeatInfinite":true}},"name":"Spiral.005","samplers":[{"input":10,"interpolation":"LINEAR","output":11},{"input":12,"interpolation":"LINEAR","output":13},{"input":14,"interpolation":"LINEAR","output":15},{"input":22,"interpolation":"LINEAR","output":23},{"input":24,"interpolation":"LINEAR","output":25},{"input":26,"interpolation":"LINEAR","output":27},{"input":28,"interpolation":"LINEAR","output":29}]},{"channels":[{"sampler":0,"target":{"node":2,"path":"translation"}},{"sampler":1,"target":{"node":2,"path":"rotation"}},{"sampler":2,"target":{"node":2,"path":"scale"}}],"extensions":{"S8S_v3d_animation_data":{"auto":true,"loop":"REPEAT","offset":0.0,"repeatCount":1.0,"repeatInfinite":true}},"name":"Camera","samplers":[{"input":16,"interpolation":"LINEAR","output":17},{"input":18,"interpolation":"LINEAR","output":19},{"input":20,"interpolation":"LINEAR","output":21}]},{"channels":[{"sampler":0,"target":{"extras":{"material":0},"node":3,"path":"material.nodeValue[\"Value\"]"}},{"sampler":1,"target":{"extras":{"material":0},"node":3,"path":"material.nodeValue[\"Value.001\"]"}},{"sampler":2,"target":{"extras":{"material":0},"node":3,"path":"material.nodeValue[\"Value.002\"]"}},{"sampler":3,"target":{"extras":{"material":0},"node":3,"path":"material.nodeValue[\"Value.003\"]"}}],"extensions":{"S8S_v3d_animation_data":{"auto":true,"loop":"REPEAT","offset":0.0,"repeatCount":1.0,"repeatInfinite":true}},"name":"Sphere.002","samplers":[{"input":30,"interpolation":"LINEAR","output":31},{"input":32,"interpolation":"LINEAR","output":33},{"input":34,"interpolation":"LINEAR","output":35},{"input":36,"interpolation":"LINEAR","output":37}]}],"asset":{"generator":"Soft8Soft Verge3D for Blender add-on","version":"2.0"},"bufferViews":[{"buffer":0,"byteLength":95232,"byteOffset":0,"target":34963},{"buffer":0,"byteLength":109452,"byteOffset":95232,"target":34962},{"buffer":0,"byteLength":109452,"byteOffset":204684,"target":34962},{"buffer":0,"byteLength":145936,"byteOffset":314136,"target":34962},{"buffer":0,"byteLength":72968,"byteOffset":460072,"target":34962},{"buffer":0,"byteLength":1212,"byteOffset":533040,"target":34963},{"buffer":0,"byteLength":7272,"byteOffset":534252,"target":34962},{"buffer":0,"byteLength":7272,"byteOffset":541524,"target":34962},{"buffer":0,"byteLength":9696,"byteOffset":548796,"target":34962},{"buffer":0,"byteLength":4848,"byteOffset":558492,"target":34962},{"buffer":0,"byteLength":4,"byteOffset":563340},{"buffer":0,"byteLength":12,"byteOffset":563344},{"buffer":0,"byteLength":4,"byteOffset":563356},{"buffer":0,"byteLength":16,"byteOffset":563360},{"buffer":0,"byteLength":4,"byteOffset":563376},{"buffer":0,"byteLength":12,"byteOffset":563380},{"buffer":0,"byteLength":4,"byteOffset":563392},{"buffer":0,"byteLength":12,"byteOffset":563396},{"buffer":0,"byteLength":4,"byteOffset":563408},{"buffer":0,"byteLength":16,"byteOffset":563412},{"buffer":0,"byteLength":4,"byteOffset":563428},{"buffer":0,"byteLength":12,"byteOffset":563432},{"buffer":0,"byteLength":8,"byteOffset":563444},{"buffer":0,"byteLength":8,"byteOffset":563452},{"buffer":0,"byteLength":8,"byteOffset":563460},{"buffer":0,"byteLength":8,"byteOffset":563468},{"buffer":0,"byteLength":8,"byteOffset":563476},{"buffer":0,"byteLength":8,"byteOffset":563484},{"buffer":0,"byteLength":8,"byteOffset":563492},{"buffer":0,"byteLength":8,"byteOffset":563500},{"buffer":0,"byteLength":8,"byteOffset":563508},{"buffer":0,"byteLength":8,"byteOffset":563516},{"buffer":0,"byteLength":8,"byteOffset":563524},{"buffer":0,"byteLength":8,"byteOffset":563532},{"buffer":0,"byteLength":8,"byteOffset":563540},{"buffer":0,"byteLength":8,"byteOffset":563548},{"buffer":0,"byteLength":8,"byteOffset":563556},{"buffer":0,"byteLength":8,"byteOffset":563564}],"buffers":[{"byteLength":563572,"uri":"threejs_water.bin"}],"cameras":[{"extensions":{"S8S_v3d_camera_data":{"controls":"ORBIT","enablePan":true,"moveSpeed":1.0,"orbitMaxDistance":100.0,"orbitMaxPolarAngle":3.1415927410125732,"orbitMaxZoom":100.0,"orbitMinDistance":0.0,"orbitMinPolarAngle":0.0,"orbitMinZoom":0.009999999776482582,"orbitTarget":[0.0,0.0,-0.0],"rotateSpeed":1.0,"viewportFitInitialAspect":1.7777777777777777,"viewportFitType":"AUTO"}},"name":"Camera","perspective":{"aspectRatio":1.7777777777777777,"yfov":1.1283951805128494,"zfar":100.0,"znear":0.10000000149011612},"type":"perspective"}],"extensions":{"S8S_v3d_data":{"lights":[{"color":[1.0,1.0,1.0],"intensity":1000.0,"name":"Light","profile":"blender","shadow":{"bias":-0.0018,"cameraFar":100,"cameraFov":0,"cameraNear":0.1,"csm":{"maxDistance":1000.0},"enabled":true,"expBias":2.5,"mapSize":1024,"radius":1.0,"slopeScaledBias":2.5},"type":"directional"}]}},"extensionsUsed":["S8S_v3d_texture_data","S8S_v3d_material_data","S8S_v3d_camera_data","S8S_v3d_data","S8S_v3d_mesh_data","S8S_v3d_node_data","S8S_v3d_animation_data","S8S_v3d_scene_data"],"images":[{"uri":"low_noise.png"},{"uri":"spiaggia_di_mondello_1k.hdr"}],"materials":[{"alphaMode":"BLEND","doubleSided":true,"extensions":{"S8S_v3d_material_data":{"blendMode":{"blendEquation":32774,"dstRGB":771,"srcRGB":1},"depthWrite":false,"materialIndex":0,"nodeGraph":{"edges":[{"fromNode":7,"fromOutput":0,"toInput":2,"toNode":17},{"fromNode":3,"fromOutput":0,"toInput":0,"toNode":0},{"fromNode":0,"fromOutput":0,"toInput":0,"toNode":1},{"fromNode":19,"fromOutput":0,"toInput":1,"toNode":0},{"fromNode":21,"fromOutput":0,"toInput":0,"toNode":19},{"fromNode":22,"fromOutput":0,"toInput":1,"toNode":19},{"fromNode":2,"fromOutput":0,"toInput":0,"toNode":5},{"fromNode":3,"fromOutput":0,"toInput":0,"toNode":2},{"fromNode":4,"fromOutput":0,"toInput":1,"toNode":2},{"fromNode":23,"fromOutput":0,"toInput":0,"toNode":4},{"fromNode":24,"fromOutput":0,"toInput":1,"toNode":4},{"fromNode":6,"fromOutput":0,"toInput":1,"toNode":7},{"fromNode":1,"fromOutput":0,"toInput":0,"toNode":9},{"fromNode":5,"fromOutput":0,"toInput":0,"toNode":11},{"fromNode":15,"fromOutput":0,"toInput":0,"toNode":16},{"fromNode":20,"fromOutput":0,"toInput":1,"toNode":15},{"fromNode":7,"fromOutput":0,"toInput":1,"toNode":14},{"fromNode":17,"fromOutput":0,"toInput":2,"toNode":15},{"fromNode":9,"fromOutput":0,"toInput":0,"toNode":8},{"fromNode":11,"fromOutput":0,"toInput":0,"toNode":10},{"fromNode":8,"fromOutput":0,"toInput":1,"toNode":6},{"fromNode":10,"fromOutput":0,"toInput":2,"toNode":6},{"fromNode":9,"fromOutput":1,"toInput":1,"toNode":12},{"fromNode":9,"fromOutput":2,"toInput":2,"toNode":8},{"fromNode":11,"fromOutput":1,"toInput":1,"toNode":13},{"fromNode":11,"fromOutput":2,"toInput":2,"toNode":10},{"fromNode":12,"fromOutput":0,"toInput":1,"toNode":8},{"fromNode":13,"fromOutput":0,"toInput":1,"toNode":10},{"fromNode":18,"fromOutput":0,"toInput":0,"toNode":15},{"fromNode":14,"fromOutput":0,"toInput":0,"toNode":18}],"nodes":[{"inputs":[[0.0,0.0,0.0],[0.0,0.0,0.0],[0.0,0.0,0.0],[1.0,1.0,1.0]],"is_active_output":false,"name":"Mapping","outputs":[[0.0,0.0,0.0]],"type":"MAPPING_BL","vectorType":"POINT"},{"inputs":[[0.0,0.0,0.0]],"is_active_output":false,"name":"Image Texture","outputs":[[0.0,0.0,0.0,0.0],0.0],"projection":"FLAT","projectionBlend":0.0,"texture":0,"type":"TEX_IMAGE_BL"},{"inputs":[[0.0,0.0,0.0],[0.0,0.0,0.0],[0.0,0.0,0.0],[2.0,2.0,2.0]],"is_active_output":false,"name":"Mapping.001","outputs":[[0.0,0.0,0.0]],"type":"MAPPING_BL","vectorType":"POINT"},{"inputs":[],"is_active_output":false,"name":"UV Map","outputs":[[0.0,0.0,0.0]],"type":"UVMAP_BL","uvLayer":""},{"inputs":[0.0,0.0,0.0],"is_active_output":false,"name":"Combine XYZ.001","outputs":[[0.0,0.0,0.0]],"type":"COMBXYZ_BL"},{"inputs":[[0.0,0.0,0.0]],"is_active_output":false,"name":"Image Texture.001","outputs":[[0.0,0.0,0.0,0.0],0.0],"projection":"FLAT","projectionBlend":0.0,"texture":0,"type":"TEX_IMAGE_BL"},{"blendType":"MIX","inputs":[0.5,[0.5,0.5,0.5,1.0],[0.5,0.5,0.5,1.0]],"is_active_output":false,"name":"Mix","outputs":[[0.0,0.0,0.0,0.0]],"type":"MIX_RGB_BL","useClamp":false},{"inputs":[1.0,[0.5,0.5,1.0,1.0]],"is_active_output":false,"name":"Normal Map","outputs":[[0.0,0.0,0.0]],"type":"NORMAL_MAP_BL","uvLayer":""},{"inputs":[0.0,0.0,0.0],"is_active_output":false,"name":"Combine RGB","outputs":[[0.0,0.0,0.0,0.0]],"type":"COMBRGB_BL"},{"inputs":[[0.800000011920929,0.800000011920929,0.800000011920929,1.0]],"is_active_output":false,"name":"Separate RGB","outputs":[0.0,0.0,0.0],"type":"SEPRGB_BL"},{"inputs":[0.0,0.0,0.0],"is_active_output":false,"name":"Combine RGB.001","outputs":[[0.0,0.0,0.0,0.0]],"type":"COMBRGB_BL"},{"inputs":[[0.800000011920929,0.800000011920929,0.800000011920929,1.0]],"is_active_output":false,"name":"Separate RGB.001","outputs":[0.0,0.0,0.0],"type":"SEPRGB_BL"},{"inputs":[1.0,[0.0,0.0,0.0,1.0]],"is_active_output":false,"name":"Invert","outputs":[[0.0,0.0,0.0,0.0]],"type":"INVERT_BL"},{"inputs":[1.0,[0.0,0.0,0.0,1.0]],"is_active_output":false,"name":"Invert.001","outputs":[[0.0,0.0,0.0,0.0]],"type":"INVERT_BL"},{"inputs":[1.5,[0.0,0.0,0.0]],"is_active_output":false,"name":"Fresnel","outputs":[0.0],"type":"FRESNEL_BL"},{"inputs":[0.5,[0,0,0,0],[0,0,0,0]],"is_active_output":false,"name":"Mix Shader","outputs":[[0,0,0,0]],"type":"MIX_SHADER_BL"},{"inputs":[[0,0,0,0],[0,0,0,0],[0.0,0.0,0.0]],"is_active_output":true,"name":"Material Output","outputs":[],"type":"OUTPUT_MATERIAL_BL"},{"inputs":[[0.005547019653022289,0.04458039253950119,1.0,1.0],0.47741934657096863,[0.0,0.0,0.0]],"is_active_output":false,"name":"Glossy BSDF","outputs":[[0,0,0,0]],"type":"BSDF_GLOSSY_BL"},{"blendType":"MIX","inputs":[0.5,[0.02821996808052063,0.02821996808052063,0.02821996808052063,1.0],[0.0,0.004746135789901018,1.0,1.0]],"is_active_output":false,"name":"Mix.001","outputs":[[0.0,0.0,0.0,0.0]],"type":"MIX_RGB_BL","useClamp":false},{"inputs":[0.0,0.0,0.0],"is_active_output":false,"name":"Combine XYZ","outputs":[[0.0,0.0,0.0]],"type":"COMBXYZ_BL"},{"inputs":[[0.46175214648246765,0.4160485863685608,1.0,0.8465743660926819]],"is_active_output":false,"name":"Transparent BSDF","outputs":[[0,0,0,0]],"type":"BSDF_TRANSPARENT_BL"},{"inputs":[],"is_active_output":false,"name":"Value","outputs":[0.0],"type":"VALUE_BL"},{"inputs":[],"is_active_output":false,"name":"Value.001","outputs":[0.0],"type":"VALUE_BL"},{"inputs":[],"is_active_output":false,"name":"Value.002","outputs":[0.5],"type":"VALUE_BL"},{"inputs":[],"is_active_output":false,"name":"Value.003","outputs":[0.5],"type":"VALUE_BL"}]},"renderSide":"DOUBLE","useCastShadows":false}},"name":"water"},{"alphaMode":"BLEND","doubleSided":true,"extensions":{"S8S_v3d_material_data":{"blendMode":{"blendEquation":32774,"dstRGB":771,"srcRGB":1},"depthWrite":false,"materialIndex":0,"nodeGraph":{"edges":[{"fromNode":7,"fromOutput":0,"toInput":2,"toNode":17},{"fromNode":3,"fromOutput":0,"toInput":0,"toNode":0},{"fromNode":0,"fromOutput":0,"toInput":0,"toNode":1},{"fromNode":18,"fromOutput":0,"toInput":1,"toNode":0},{"fromNode":21,"fromOutput":0,"toInput":0,"toNode":18},{"fromNode":22,"fromOutput":0,"toInput":1,"toNode":18},{"fromNode":2,"fromOutput":0,"toInput":0,"toNode":5},{"fromNode":3,"fromOutput":0,"toInput":0,"toNode":2},{"fromNode":4,"fromOutput":0,"toInput":1,"toNode":2},{"fromNode":23,"fromOutput":0,"toInput":0,"toNode":4},{"fromNode":24,"fromOutput":0,"toInput":1,"toNode":4},{"fromNode":6,"fromOutput":0,"toInput":1,"toNode":7},{"fromNode":1,"fromOutput":0,"toInput":0,"toNode":9},{"fromNode":5,"fromOutput":0,"toInput":0,"toNode":11},{"fromNode":15,"fromOutput":0,"toInput":0,"toNode":16},{"fromNode":19,"fromOutput":0,"toInput":1,"toNode":15},{"fromNode":7,"fromOutput":0,"toInput":1,"toNode":14},{"fromNode":17,"fromOutput":0,"toInput":2,"toNode":15},{"fromNode":9,"fromOutput":0,"toInput":0,"toNode":8},{"fromNode":11,"fromOutput":0,"toInput":0,"toNode":10},{"fromNode":8,"fromOutput":0,"toInput":1,"toNode":6},{"fromNode":10,"fromOutput":0,"toInput":2,"toNode":6},{"fromNode":9,"fromOutput":1,"toInput":1,"toNode":12},{"fromNode":9,"fromOutput":2,"toInput":2,"toNode":8},{"fromNode":11,"fromOutput":1,"toInput":1,"toNode":13},{"fromNode":11,"fromOutput":2,"toInput":2,"toNode":10},{"fromNode":12,"fromOutput":0,"toInput":1,"toNode":8},{"fromNode":13,"fromOutput":0,"toInput":1,"toNode":10},{"fromNode":20,"fromOutput":0,"toInput":0,"toNode":15},{"fromNode":14,"fromOutput":0,"toInput":0,"toNode":20}],"nodes":[{"inputs":[[0.0,0.0,0.0],[0.0,0.0,0.0],[0.0,0.0,0.0],[1.0,1.0,1.0]],"is_active_output":false,"name":"Mapping","outputs":[[0.0,0.0,0.0]],"type":"MAPPING_BL","vectorType":"POINT"},{"inputs":[[0.0,0.0,0.0]],"is_active_output":false,"name":"Image Texture","outputs":[[0.0,0.0,0.0,0.0],0.0],"projection":"FLAT","projectionBlend":0.0,"texture":0,"type":"TEX_IMAGE_BL"},{"inputs":[[0.0,0.0,0.0],[0.0,0.0,0.0],[0.0,0.0,0.0],[2.0,2.0,2.0]],"is_active_output":false,"name":"Mapping.001","outputs":[[0.0,0.0,0.0]],"type":"MAPPING_BL","vectorType":"POINT"},{"inputs":[],"is_active_output":false,"name":"UV Map","outputs":[[0.0,0.0,0.0]],"type":"UVMAP_BL","uvLayer":""},{"inputs":[0.0,0.0,0.0],"is_active_output":false,"name":"Combine XYZ.001","outputs":[[0.0,0.0,0.0]],"type":"COMBXYZ_BL"},{"inputs":[[0.0,0.0,0.0]],"is_active_output":false,"name":"Image Texture.001","outputs":[[0.0,0.0,0.0,0.0],0.0],"projection":"FLAT","projectionBlend":0.0,"texture":0,"type":"TEX_IMAGE_BL"},{"blendType":"MIX","inputs":[0.5,[0.5,0.5,0.5,1.0],[0.5,0.5,0.5,1.0]],"is_active_output":false,"name":"Mix","outputs":[[0.0,0.0,0.0,0.0]],"type":"MIX_RGB_BL","useClamp":false},{"inputs":[1.0,[0.5,0.5,1.0,1.0]],"is_active_output":false,"name":"Normal Map","outputs":[[0.0,0.0,0.0]],"type":"NORMAL_MAP_BL","uvLayer":""},{"inputs":[0.0,0.0,0.0],"is_active_output":false,"name":"Combine RGB","outputs":[[0.0,0.0,0.0,0.0]],"type":"COMBRGB_BL"},{"inputs":[[0.800000011920929,0.800000011920929,0.800000011920929,1.0]],"is_active_output":false,"name":"Separate RGB","outputs":[0.0,0.0,0.0],"type":"SEPRGB_BL"},{"inputs":[0.0,0.0,0.0],"is_active_output":false,"name":"Combine RGB.001","outputs":[[0.0,0.0,0.0,0.0]],"type":"COMBRGB_BL"},{"inputs":[[0.800000011920929,0.800000011920929,0.800000011920929,1.0]],"is_active_output":false,"name":"Separate RGB.001","outputs":[0.0,0.0,0.0],"type":"SEPRGB_BL"},{"inputs":[1.0,[0.0,0.0,0.0,1.0]],"is_active_output":false,"name":"Invert","outputs":[[0.0,0.0,0.0,0.0]],"type":"INVERT_BL"},{"inputs":[1.0,[0.0,0.0,0.0,1.0]],"is_active_output":false,"name":"Invert.001","outputs":[[0.0,0.0,0.0,0.0]],"type":"INVERT_BL"},{"inputs":[1.5,[0.0,0.0,0.0]],"is_active_output":false,"name":"Fresnel","outputs":[0.0],"type":"FRESNEL_BL"},{"inputs":[0.5,[0,0,0,0],[0,0,0,0]],"is_active_output":false,"name":"Mix Shader","outputs":[[0,0,0,0]],"type":"MIX_SHADER_BL"},{"inputs":[[0,0,0,0],[0,0,0,0],[0.0,0.0,0.0]],"is_active_output":true,"name":"Material Output","outputs":[],"type":"OUTPUT_MATERIAL_BL"},{"inputs":[[0.0,0.5285828709602356,0.5427893400192261,1.0],0.3096774220466614,[0.0,0.0,0.0]],"is_active_output":false,"name":"Glossy BSDF","outputs":[[0,0,0,0]],"type":"BSDF_GLOSSY_BL"},{"inputs":[0.0,0.0,0.0],"is_active_output":false,"name":"Combine XYZ","outputs":[[0.0,0.0,0.0]],"type":"COMBXYZ_BL"},{"inputs":[[0.46175214648246765,0.4160485863685608,1.0,0.8465743660926819]],"is_active_output":false,"name":"Transparent BSDF","outputs":[[0,0,0,0]],"type":"BSDF_TRANSPARENT_BL"},{"blendType":"MIX","inputs":[0.5,[0.02821996808052063,0.02821996808052063,0.02821996808052063,1.0],[0.0,0.15183739364147186,1.0,1.0]],"is_active_output":false,"name":"Mix.001","outputs":[[0.0,0.0,0.0,0.0]],"type":"MIX_RGB_BL","useClamp":false},{"inputs":[],"is_active_output":false,"name":"Value","outputs":[0.0],"type":"VALUE_BL"},{"inputs":[],"is_active_output":false,"name":"Value.001","outputs":[0.0],"type":"VALUE_BL"},{"inputs":[],"is_active_output":false,"name":"Value.002","outputs":[0.5],"type":"VALUE_BL"},{"inputs":[],"is_active_output":false,"name":"Value.003","outputs":[0.5],"type":"VALUE_BL"}]},"renderSide":"DOUBLE","useCastShadows":false}},"name":"water.004"},{"extensions":{"S8S_v3d_material_data":{"materialIndex":0,"nodeGraph":{"edges":[{"fromNode":2,"fromOutput":0,"toInput":0,"toNode":0}],"nodes":[{"inputs":[[0,0,0,0],[0,0,0,0]],"is_active_output":true,"name":"World Output","outputs":[],"type":"OUTPUT_WORLD_BL"},{"inputs":[[0.0,0.0,0.0]],"is_active_output":false,"name":"Environment Texture","outputs":[[0.0,0.0,0.0,0.0]],"projection":"EQUIRECTANGULAR","texture":4,"type":"TEX_ENVIRONMENT_BL"},{"inputs":[[0.05087608844041824,0.05087608844041824,0.05087608844041824,1.0],1.0],"is_active_output":false,"name":"Background","outputs":[[0,0,0,0]],"type":"BACKGROUND_BL"}]},"useCastShadows":true}},"name":"Verge3D_Environment_World"}],"meshes":[{"extensions":{"S8S_v3d_mesh_data":{"colorLayers":{},"uvLayers":{"UVMap":"TEXCOORD_0"}}},"name":"Sphere.005","primitives":[{"attributes":{"NORMAL":2,"POSITION":1,"TANGENT":3,"TEXCOORD_0":4},"indices":0,"material":0,"mode":4}]},{"extensions":{"S8S_v3d_mesh_data":{"colorLayers":{},"uvLayers":{"UVMap":"TEXCOORD_0"}}},"name":"Spiral.007","primitives":[{"attributes":{"NORMAL":7,"POSITION":6,"TANGENT":8,"TEXCOORD_0":9},"indices":5,"material":1,"mode":4}]}],"nodes":[{"extensions":{"S8S_v3d_node_data":{"frustumCulling":true,"groupNames":["Collection"],"hidden":false,"hidpiCompositing":false,"light":0,"objectColor":[0.0,0.0,0.0],"objectIndex":0,"renderOrder":0}},"name":"Light","rotation":[-0.2841663062572479,0.7269423604011536,0.34203389286994934,0.5232754945755005],"scale":[0.9999999403953552,0.9999997019767761,0.9999999403953552],"translation":[4.076245307922363,5.903861999511719,-1.0054539442062378]},{"extensions":{"S8S_v3d_node_data":{"frustumCulling":true,"groupNames":["Collection"],"hidden":false,"hidpiCompositing":false,"objectColor":[1.0,1.0,1.0],"objectIndex":0,"renderOrder":0,"useShadows":true}},"mesh":1,"name":"Spiral.005","scale":[0.5723328590393066,0.5723328590393066,0.5723328590393066],"translation":[0.0,-0.8206542134284973,-0.0]},{"camera":0,"extensions":{"S8S_v3d_node_data":{"frustumCulling":true,"groupNames":["Collection"],"hidden":false,"hidpiCompositing":false,"objectColor":[0.0,0.0,0.0],"objectIndex":0,"renderOrder":0}},"name":"Camera","rotation":[-0.22889350354671478,-0.561286985874176,-0.300327867269516,0.7364563345909119],"scale":[1.0,0.9999998211860657,0.9999998211860657],"translation":[-4.452493190765381,4.355851650238037,1.7127361297607422]},{"extensions":{"S8S_v3d_node_data":{"frustumCulling":true,"groupNames":["Collection"],"hidden":false,"hidpiCompositing":false,"objectColor":[1.0,1.0,1.0],"objectIndex":0,"renderOrder":0,"useShadows":true}},"mesh":0,"name":"Sphere.002"}],"samplers":[{}],"scene":0,"scenes":[{"extensions":{"S8S_v3d_scene_data":{"aaMethod":"AUTO","iblEnvironmentMode":"PMREM","physicallyCorrectLights":true,"pmremMaxTileSize":512,"shadowMap":{"esmDistanceScale":1.0,"renderReverseSided":false,"renderSingleSided":true,"type":"PCFPOISSON"},"toneMapping":{"type":"filmicBlender"},"worldMaterial":2}},"extras":{"animFrameRate":24,"coordSystem":"Z_UP_RIGHT"},"name":"Scene","nodes":[0,2,3,1]}],"textures":[{"extensions":{"S8S_v3d_texture_data":{"colorSpace":"non-color"}},"name":"low_noise.png","sampler":0,"source":0},{"extensions":{"S8S_v3d_texture_data":{"colorSpace":"non-color"}},"name":"low_noise.png","sampler":0,"source":0},{"extensions":{"S8S_v3d_texture_data":{"colorSpace":"non-color"}},"name":"low_noise.png","sampler":0,"source":0},{"extensions":{"S8S_v3d_texture_data":{"colorSpace":"non-color"}},"name":"low_noise.png","sampler":0,"source":0},{"extensions":{"S8S_v3d_texture_data":{"colorSpace":"linear"}},"name":"spiaggia_di_mondello_1k.hdr.001","sampler":0,"source":1}]}
