{
    "asset" : {
        "generator" : "Khronos glTF Blender I/O v1.0.5",
        "version" : "2.0"
    },
    "scene" : 0,
    "scenes" : [
        {
            "name" : "Scene",
            "nodes" : [
                0,
                1,
                2
            ]
        }
    ],
    "nodes" : [
        {
            "mesh" : 0,
            "name" : "Icosphere.000",
            "translation" : [
                0.008742809295654297,
                2.346662998199463,
                1.731986403465271
            ]
        },
        {
            "mesh" : 1,
            "name" : "Cylinder",
            "scale" : [
                1.209641933441162,
                1.209641933441162,
                1.209641933441162
            ],
            "translation" : [
                0.041345544159412384,
                0.7744947671890259,
                1.6701785326004028
            ]
        },
        {
            "name" : "Camera",
            "rotation" : [
                0.4619397819042206,
                0.3314135670661926,
                -0.19134172797203064,
                0.8001031279563904
            ],
            "translation" : [
                7,
                7,
                7
            ]
        }
    ],
    "materials" : [
        {
            "doubleSided" : true,
            "emissiveFactor" : [
                1,
                1,
                1
            ],
            "emissiveTexture" : {
                "index" : 0,
                "texCoord" : 0
            },
            "name" : "Material_MR.003",
            "normalTexture" : {
                "index" : 1,
                "texCoord" : 0
            },
            "pbrMetallicRoughness" : {
                "baseColorFactor" : [
                    1,
                    1,
                    1,
                    1
                ],
                "baseColorTexture" : {
                    "index" : 2,
                    "texCoord" : 0
                },
                "metallicFactor" : 1,
                "metallicRoughnessTexture" : {
                    "index" : 3,
                    "texCoord" : 0
                },
                "roughnessFactor" : 1
            }
        }
    ],
    "meshes" : [
        {
            "name" : "Icosphere.003",
            "primitives" : [
                {
                    "attributes" : {
                        "POSITION" : 0,
                        "NORMAL" : 1,
                        "TEXCOORD_0" : 2
                    },
                    "indices" : 3,
                    "material" : 0
                }
            ]
        },
        {
            "name" : "Cylinder",
            "primitives" : [
                {
                    "attributes" : {
                        "POSITION" : 4,
                        "NORMAL" : 5,
                        "TEXCOORD_0" : 6
                    },
                    "indices" : 7
                }
            ]
        }
    ],
    "textures" : [
        {
            "source" : 0
        },
        {
            "source" : 1
        },
        {
            "source" : 2
        },
        {
            "source" : 3
        }
    ],
    "images" : [
        {
            "bufferView" : 4,
            "mimeType" : "image/png",
            "name" : "bl"
        },
        {
            "bufferView" : 5,
            "mimeType" : "image/jpeg",
            "name" : "Default_normal3"
        },
        {
            "bufferView" : 6,
            "mimeType" : "image/jpeg",
            "name" : "Default_albedo"
        },
        {
            "bufferView" : 7,
            "mimeType" : "image/jpeg",
            "name" : "Default_metalRoughness"
        }
    ],
    "accessors" : [
        {
            "bufferView" : 0,
            "componentType" : 5126,
            "count" : 960,
            "max" : [
                0.9308757781982422,
                0.9424206614494324,
                0.9317176342010498
            ],
            "min" : [
                -0.9308757781982422,
                -0.9424207806587219,
                -0.9317176342010498
            ],
            "type" : "VEC3"
        },
        {
            "bufferView" : 1,
            "componentType" : 5126,
            "count" : 960,
            "type" : "VEC3"
        },
        {
            "bufferView" : 2,
            "componentType" : 5126,
            "count" : 960,
            "type" : "VEC2"
        },
        {
            "bufferView" : 3,
            "componentType" : 5123,
            "count" : 960,
            "type" : "SCALAR"
        },
        {
            "bufferView" : 8,
            "componentType" : 5126,
            "count" : 19654,
            "max" : [
                10.007997512817383,
                1.0092121362686157,
                10.007999420166016
            ],
            "min" : [
                -10.007999420166016,
                -5.602982521057129,
                -10.007997512817383
            ],
            "type" : "VEC3"
        },
        {
            "bufferView" : 9,
            "componentType" : 5126,
            "count" : 19654,
            "type" : "VEC3"
        },
        {
            "bufferView" : 10,
            "componentType" : 5126,
            "count" : 19654,
            "type" : "VEC2"
        },
        {
            "bufferView" : 11,
            "componentType" : 5123,
            "count" : 29568,
            "type" : "SCALAR"
        }
    ],
    "bufferViews" : [
        {
            "buffer" : 0,
            "byteLength" : 11520,
            "byteOffset" : 0
        },
        {
            "buffer" : 0,
            "byteLength" : 11520,
            "byteOffset" : 11520
        },
        {
            "buffer" : 0,
            "byteLength" : 7680,
            "byteOffset" : 23040
        },
        {
            "buffer" : 0,
            "byteLength" : 1920,
            "byteOffset" : 30720
        },
        {
            "buffer" : 0,
            "byteLength" : 3909,
            "byteOffset" : 32640
        },
        {
            "buffer" : 0,
            "byteLength" : 66015,
            "byteOffset" : 36552
        },
        {
            "buffer" : 0,
            "byteLength" : 61093,
            "byteOffset" : 102568
        },
        {
            "buffer" : 0,
            "byteLength" : 176567,
            "byteOffset" : 163664
        },
        {
            "buffer" : 0,
            "byteLength" : 235848,
            "byteOffset" : 340232
        },
        {
            "buffer" : 0,
            "byteLength" : 235848,
            "byteOffset" : 576080
        },
        {
            "buffer" : 0,
            "byteLength" : 157232,
            "byteOffset" : 811928
        },
        {
            "buffer" : 0,
            "byteLength" : 59136,
            "byteOffset" : 969160
        }
    ],
    "buffers" : [
        {
            "byteLength" : 1028296,
            "uri" : "data:application/octet-stream;base64,"
        }
    ]
}
